<svg xmlns="http://www.w3.org/2000/svg" width="1475" height="2500" viewBox="0 0 69.121 117.121"><linearGradient id="a" gradientUnits="userSpaceOnUse" x1="34.64" y1="-.217" x2="34.64" y2="117.12"><stop offset="0" stop-color="#e8e8e8"/><stop offset="1" stop-color="#9c9c9c"/></linearGradient><path fill="url(#a)" d="M60.706.784L8.623.783c-4.034 0-7.313 3.28-7.313 7.314v100.471a7.315 7.315 0 0 0 7.313 7.317h52.133c1.945 0 3.744-.766 5.119-2.139 1.382-1.385 2.096-3.229 2.096-5.178V8.096c0-4.028-3.224-7.312-7.265-7.312zm4.649 107.784c0 1.25-.438 2.433-1.328 3.326-.885.883-2.021 1.373-3.271 1.373H8.623a4.68 4.68 0 0 1-3.321-1.375 4.687 4.687 0 0 1-1.375-3.324V8.097a4.703 4.703 0 0 1 4.697-4.698l52.083.001c2.6 0 4.648 2.112 4.648 4.696v100.472z"/><linearGradient id="b" gradientUnits="userSpaceOnUse" x1="58.492" y1="480.644" x2="115.826" y2="600.647" gradientTransform="translate(-50 -476.88)"><stop offset=".083" stop-color="#fff"/><stop offset=".611" stop-color="#a8a8a8"/><stop offset="1" stop-color="#fff"/></linearGradient><path fill="url(#b)" d="M62.098 110.042c.396-.396.561-.92.561-1.476V8.096c0-1.139-.879-2.08-2.031-2.08L8.543 6.015a2.086 2.086 0 0 0-2.081 2.082v100.471a2.076 2.076 0 0 0 2.08 2.082h52.131c.561 0 1.032-.216 1.425-.608"/><path fill="none" stroke="#EC008C" stroke-width=".216" stroke-miterlimit="22.926" d="M65.27 113.141c-1.215 1.211-2.795 1.887-4.515 1.887H8.623a6.44 6.44 0 0 1-4.566-1.894 6.452 6.452 0 0 1-1.89-4.565V8.097A6.463 6.463 0 0 1 8.623 1.64l52.083.001c3.567 0 6.405 2.9 6.405 6.455v100.472c.002 1.721-.619 3.348-1.841 4.573z"/><g stroke="#000" stroke-width=".216" stroke-miterlimit="22.926"><path d="M10.327 107.541l1.674-.002a2.848 2.848 0 0 1-.186-.953v-5.438c0-.418.255-.395.442-.162l5.553 6.554h1.697l-5.763-6.785c-.139-.162-.118-.418.091-.418h.607a2.857 2.857 0 1 0-.001-5.715h-4.113c.092.256.161.488.186.955v11.014a2.872 2.872 0 0 1-.187.95zm1.484-11.645h2.625a1.56 1.56 0 1 1 .001 3.123l-2.626-.004v-3.119zM47.65 51.971c-2.297 5.773-7.611 7.61-7.611 7.61l1.902 3.937s.27-.066.729-.229c1.176 1.328 5.803 7.137 6.031 16.242 0-.002.326 3.74-3.02 6.363h10.172s-1.314-.853-1.838-3.215c-.525-2.361-.396-6.496-2.625-11.484-1.798-4.014-4.273-8.156-5.17-9.617 2.713-1.66 6.041-4.581 7.86-9.478 3.41-9.185-3.149-16.01-9.317-17.191 0 0 1.704 3.086 1.969 5.316 0-.001 3.887 4.281.918 11.746zM56.896 15.151c-.439-.326-1.896-1.596-2.439-2.024-.418-.324-1.094-2.625.979-2.672 1.045-.025 1.976.767 2.322.976l.582-1.464a5.062 5.062 0 0 1-1.023-.326c-.412-.174-1.162-.489-1.881-.489-.721 0-2.701.421-2.813 2.556-.093 1.769 1.092 2.626 1.535 2.978.627.464 2.229 1.695 2.95 2.695.722.999 1.093 3.091-1.487 3.393-.884-.001-1.856-.44-2.394-.79l.209 1.813c.535-.095.838.02 1.068.047.396.044.932.163 1.439.139.514-.023 3.141-.464 3.141-2.999-.001-2.23-1.561-3.322-2.188-3.833zM47.109 107.984c1.387 0 2.672-.019 3.725-.767l-.053-1.584c-.938.939-2.236 1.103-3.672 1.103-2.867 0-5.193-2.604-5.193-5.471s2.326-5.382 5.193-5.382c1.303 0 2.512.361 3.5 1.136l-.174-1.56c-1.002-.637-2.052-.823-3.326-.823-3.557 0-6.441 3.071-6.441 6.629-.001 3.559 2.884 6.719 6.441 6.719zM25.488 107.707a6.44 6.44 0 1 0 0-12.881 6.44 6.44 0 1 0 0 12.881zm0-11.633a5.192 5.192 0 0 1 0 10.381 5.193 5.193 0 0 1-5.194-5.19 5.193 5.193 0 0 1 5.194-5.191zM58.152 107.727l.953-1.533c-.646.348-2.021.348-2.883.348-.855 0-1.254-.439-1.254-.812v-4.23c0-.514.325-.674.721-.674h2.276V99.52h-2.274c-.396 0-.721-.158-.721-.672V96.8c0-.37.396-.811 1.254-.811.862 0 1.629 0 2.278.348l-.351-1.532h-4.67c.095.256.162.487.185.952l.002 11.017a2.833 2.833 0 0 1-.187.955l4.671-.002zM35.721 106.773a2.83 2.83 0 0 1-.185.951l1.672.002a2.954 2.954 0 0 1-.187-.955h.002v-5.855l3.531-6.111h-1.51L36.42 99.43l-2.626-4.625h-1.511l3.439 6.111-.001 5.857zM35.968 65.164c-.28-.945-1.305-2.99-1.817-3.834-1.899.32-3.668.426-5.065.426l.001-1.021c-.65.23-3.535.648-4.742.791V81.93c0 2.139-.931 3.158-1.582 4.09h7.902c-.651-.932-1.58-1.951-1.58-4.088l.002-16.178c2.448-.038 4.802-.243 6.881-.59zM36.939 19.772V9.8c.022-.465.094-.696.188-.951l-1.674.001c.092.256.16.486.188.95v11.018a2.972 2.972 0 0 1-.188.953h4.67l.953-1.535c-.65.348-2.021.347-2.881.348-.862 0-1.256-.44-1.256-.812zM26.328 8.869a6.442 6.442 0 1 0 .002 12.882 6.442 6.442 0 0 0-.002-12.882zm.001 11.633a5.193 5.193 0 1 1 0-10.383 5.193 5.193 0 0 1 0 10.383zM45.816 19.772L45.814 9.8c.022-.464.096-.695.188-.951l-1.674.001c.092.256.164.486.188.95v11.018a2.891 2.891 0 0 1-.188.953H49l.951-1.535c-.65.348-2.021.347-2.881.348-.86 0-1.254-.44-1.254-.812zM14.678 14.564l.603.003a2.862 2.862 0 0 0 0-5.722l-4.111.005c.093.255.162.486.184.951v11.018a2.864 2.864 0 0 1-.185.954h1.674v-.002a2.891 2.891 0 0 1-.188-.953v-5.439c0-.418.256-.396.443-.163l5.555 6.554h1.694l-5.763-6.788c-.139-.163-.115-.418.094-.418zm-2.025-1.318v-3.119h2.625a1.563 1.563 0 0 1 0 3.124l-2.625-.005z"/><path d="M13.472 80.908l7.901-.002c-.65-.932-1.58-1.951-1.58-4.09l.001-16.176c5.326-.089 9.775-.968 13.342-2.385 5.436 5.822 6.086 14.285 6.18 16.605.092 2.328-1.115 4.373-2.976 6.047h10.32c-1.582-.838-2.139-3.068-2.23-5.207-1.023-9.668-6.414-17.197-7.719-19.151 6.125-3.673 8.832-9.302 8.832-14.5 0-8.646-7.623-12.737-14.223-12.737H13.937c.65.929 1.114 1.301 1.114 3.439v44.064c0 2.14-.928 3.162-1.579 4.093zm6.322-48.528h10.225c7.064 0 9.389 4.464 9.297 9.203-.465 13.109-13.481 15.063-19.522 15.063V32.38z"/><path d="M60.707 5.159H8.623a2.943 2.943 0 0 0-2.938 2.938v100.471c0 .787.306 1.522.862 2.08a2.912 2.912 0 0 0 2.076.858h52.132c.785 0 1.474-.305 2.029-.858.555-.558.812-1.293.812-2.08V8.096c0-1.618-1.268-2.937-2.889-2.937zm1.128 103.626c0 .594-.483 1.08-1.08 1.08H8.623a1.07 1.07 0 0 1-.762-.318 1.067 1.067 0 0 1-.317-.762l.001-16.424h54.291l-.001 16.424zm0-18.498H7.545V25.454l54.291-.05-.001 64.883zm0-66.958H7.545V7.881c0-.288.112-.56.316-.763.204-.203.474-.317.762-.317h52.132a1.082 1.082 0 0 1 1.08 1.081v15.447z"/><path d="M34.809 34.281l-11.576.001c.653.928 1.117 1.3 1.117 3.438v17.476c1.532-.138 3.669-.836 4.737-1.208V37.349h8.372c-.467-1.16-1.721-2.509-2.65-3.068z"/></g></svg>